<?xml version="1.0" encoding="UTF-8" standalone="no"?>
<!DOCTYPE svg PUBLIC "-//W3C//DTD SVG 1.1//EN" "http://www.w3.org/Graphics/SVG/1.1/DTD/svg11.dtd">
<svg width="100%" height="100%" viewBox="0 0 1000 1000" version="1.1" xmlns="http://www.w3.org/2000/svg" xmlns:xlink="http://www.w3.org/1999/xlink" xml:space="preserve" xmlns:serif="http://www.serif.com/" style="fill-rule:evenodd;clip-rule:evenodd;stroke-linejoin:round;stroke-miterlimit:2;">
    <g transform="matrix(1,0,0,1,-8,-3507)">
        <g id="api_linit_ok" transform="matrix(1,0,0,1,8.43659,3507.37)">
            <rect x="0" y="0" width="1000" height="1000" style="fill:none;"/>
            <g>
                <g transform="matrix(1,0,0,1,0,-198.8)">
                    <g transform="matrix(1.2456,0,0,1.71779,-139.538,-6625.6)">
                        <path d="M204.705,4166.72C175.668,4136.53 172.398,4095.45 200.908,4062.25C232.581,4025.37 293.582,4009.72 348.446,4021.29C373.243,3992.19 417.639,3972.78 468.237,3972.78C516.183,3972.78 558.561,3990.21 583.97,4016.8C612.738,4014.95 642.539,4019.28 669.425,4030.53C699.11,4042.96 720.479,4061.85 732.109,4083.33L746.91,4083.33C800.065,4083.33 843.22,4114.62 843.22,4153.17C843.22,4158.92 842.258,4164.52 840.444,4169.87C883.653,4180.29 914.85,4209.86 914.85,4244.67C914.85,4288.16 866.157,4323.47 806.179,4323.47L220.696,4323.47C160.719,4323.47 112.025,4288.16 112.025,4244.67C112.025,4205.11 152.298,4172.33 204.705,4166.72ZM209.63,4190.89C173.48,4194.76 145.719,4217.38 145.719,4244.67C145.719,4274.67 179.315,4299.03 220.696,4299.03L806.179,4299.03C847.561,4299.03 881.157,4274.67 881.157,4244.67C881.157,4220.65 859.63,4200.24 829.815,4193.05C813.147,4189.04 803.532,4176.41 807.724,4164.04C808.905,4160.56 809.526,4156.91 809.526,4153.17C809.526,4128.11 781.469,4107.76 746.91,4107.76L732.109,4107.76C718.251,4107.76 705.807,4101.61 700.744,4092.26C691.809,4075.75 675.387,4061.24 652.578,4051.69C631.924,4043.05 609.032,4039.72 586.932,4041.13C574.874,4041.9 563.171,4037.93 556.276,4030.71C536.945,4010.48 504.714,3997.21 468.237,3997.21C429.742,3997.21 395.975,4011.99 377.11,4034.13C369.151,4043.47 353.578,4047.81 339.039,4044.75C298.308,4036.16 253.024,4047.78 229.51,4075.16C208.338,4099.82 210.779,4130.32 232.341,4152.74C239.017,4159.68 240.265,4168.63 235.639,4176.4C231.014,4184.17 221.174,4189.65 209.63,4190.89Z" style="fill:rgb(0,62,155);"/>
                    </g>
                    <g transform="matrix(2.00714,0,0,2.00714,-249.806,-7735.46)">
                        <path d="M183.582,4215.79L209.228,4215.79C210.759,4215.79 211.716,4215.22 212.29,4213.68L223.2,4185.36L286.359,4185.36L297.077,4213.68C297.651,4215.22 298.799,4215.79 300.139,4215.79L326.359,4215.79C327.891,4215.79 328.656,4215.02 328.656,4213.88C328.656,4213.49 328.656,4213.11 328.465,4212.73L267.602,4065.74C267.028,4064.21 266.071,4063.63 264.54,4063.63L245.21,4063.63C243.87,4063.63 242.722,4064.21 242.147,4065.74L181.476,4212.73C180.519,4214.64 181.668,4215.79 183.582,4215.79ZM232.769,4159.33L254.588,4101.72L276.406,4159.33L232.769,4159.33Z" style="fill:rgb(0,62,155);fill-rule:nonzero;"/>
                    </g>
                    <g transform="matrix(2.00714,0,0,2.00714,-249.806,-7735.46)">
                        <path d="M352.695,4215.79L375.28,4215.79C376.811,4215.79 377.959,4214.83 377.959,4213.11L377.959,4169.86L398.629,4169.86C438.63,4169.86 458.917,4150.33 458.917,4116.65C458.917,4083.16 438.63,4063.63 398.629,4063.63L352.695,4063.63C350.973,4063.63 350.016,4064.59 350.016,4066.31L350.016,4213.11C350.016,4214.83 350.973,4215.79 352.695,4215.79ZM397.672,4143.83L377.959,4143.83L377.959,4089.47L397.672,4089.47C418.342,4089.47 430.017,4098.08 430.017,4116.07C430.017,4135.4 418.342,4143.83 397.672,4143.83Z" style="fill:rgb(0,62,155);fill-rule:nonzero;"/>
                    </g>
                    <g transform="matrix(2.00714,0,0,2.00714,-249.806,-7735.46)">
                        <path d="M487.435,4215.79L510.019,4215.79C511.55,4215.79 512.698,4214.83 512.698,4213.11L512.698,4066.31C512.698,4064.59 511.55,4063.63 510.019,4063.63L487.435,4063.63C485.712,4063.63 484.755,4064.59 484.755,4066.31L484.755,4213.11C484.755,4214.83 485.712,4215.79 487.435,4215.79Z" style="fill:rgb(0,62,155);fill-rule:nonzero;"/>
                    </g>
                </g>
                <g transform="matrix(-1,-1.22465e-16,1.22465e-16,-1,915.245,4883.9)">
                    <path d="M379.104,4297.84C379.104,4262.15 408.08,4233.17 443.77,4233.17C479.461,4233.17 508.437,4262.15 508.437,4297.84L379.104,4297.84Z" style="fill:rgb(0,62,155);"/>
                </g>
                <g transform="matrix(1,0,0,1.44923,125.013,-5557.4)">
                    <path d="M365.214,4256.87L365.214,4500.9C365.214,4504.48 361.013,4507.37 355.838,4507.37L337.086,4507.37C331.912,4507.37 327.711,4504.48 327.711,4500.9L327.711,4256.87C327.711,4253.3 331.912,4250.4 337.086,4250.4L355.838,4250.4C361.013,4250.4 365.214,4253.3 365.214,4256.87Z" style="fill:rgb(0,62,155);"/>
                </g>
                <g transform="matrix(1,0,0,1,0,31.2669)">
                    <g transform="matrix(0.866025,-0.5,0.268918,0.46578,-1031.52,-959.992)">
                        <path d="M365.214,4285.26L365.214,4472.51C365.214,4491.75 356.811,4507.37 346.462,4507.37C336.113,4507.37 327.711,4491.75 327.711,4472.51L327.711,4285.26C327.711,4266.02 336.113,4250.4 346.462,4250.4C356.811,4250.4 365.214,4266.02 365.214,4285.26Z" style="fill:rgb(0,62,155);"/>
                    </g>
                    <g transform="matrix(-0.866025,-0.5,-0.268918,0.46578,1974.47,-959.992)">
                        <path d="M365.214,4285.26L365.214,4472.51C365.214,4491.75 356.811,4507.37 346.462,4507.37C336.113,4507.37 327.711,4491.75 327.711,4472.51L327.711,4285.26C327.711,4266.02 336.113,4250.4 346.462,4250.4C356.811,4250.4 365.214,4266.02 365.214,4285.26Z" style="fill:rgb(0,62,155);"/>
                    </g>
                </g>
            </g>
        </g>
    </g>
</svg>
