<?xml version="1.0" encoding="UTF-8" standalone="no"?>
<!DOCTYPE svg PUBLIC "-//W3C//DTD SVG 1.1//EN" "http://www.w3.org/Graphics/SVG/1.1/DTD/svg11.dtd">
<svg width="100%" height="100%" viewBox="0 0 1000 1000" version="1.1" xmlns="http://www.w3.org/2000/svg" xmlns:xlink="http://www.w3.org/1999/xlink" xml:space="preserve" xmlns:serif="http://www.serif.com/" style="fill-rule:evenodd;clip-rule:evenodd;stroke-linecap:round;stroke-linejoin:round;stroke-miterlimit:1.5;">
    <g transform="matrix(1,0,0,1,-4372,-2366)">
        <g id="column_close" transform="matrix(1,0,0,1,4372.09,2366.67)">
            <rect x="0" y="0" width="1000" height="1000" style="fill:none;"/>
            <g transform="matrix(1,0,0,1,1.05502,4.54747e-13)">
                <g transform="matrix(0.707107,0.707107,-1.10118,1.10118,-2381.33,-3685.16)">
                    <path d="M5035.98,197.819C5035.98,190.738 5027.03,184.988 5016,184.988L4976.03,184.988C4965.01,184.988 4956.05,190.738 4956.05,197.819L4956.05,987.168C4956.05,994.25 4965.01,1000 4976.03,1000L5016,1000C5027.03,1000 5035.98,994.25 5035.98,987.168L5035.98,197.819Z" style="fill:rgb(0,62,155);stroke:rgb(0,62,155);stroke-width:26.87px;"/>
                </g>
                <g transform="matrix(-0.707107,0.707107,1.10118,1.10118,3379.22,-3685.16)">
                    <path d="M5035.98,197.819C5035.98,190.738 5027.03,184.988 5016,184.988L4976.03,184.988C4965.01,184.988 4956.05,190.738 4956.05,197.819L4956.05,987.168C4956.05,994.25 4965.01,1000 4976.03,1000L5016,1000C5027.03,1000 5035.98,994.25 5035.98,987.168L5035.98,197.819Z" style="fill:rgb(0,62,155);stroke:rgb(0,62,155);stroke-width:26.87px;"/>
                </g>
            </g>
        </g>
    </g>
</svg>
