<?xml version="1.0" encoding="UTF-8" standalone="no"?>
<!DOCTYPE svg PUBLIC "-//W3C//DTD SVG 1.1//EN" "http://www.w3.org/Graphics/SVG/1.1/DTD/svg11.dtd">
<svg width="100%" height="100%" viewBox="0 0 1000 1000" version="1.1" xmlns="http://www.w3.org/2000/svg" xmlns:xlink="http://www.w3.org/1999/xlink" xml:space="preserve" xmlns:serif="http://www.serif.com/" style="fill-rule:evenodd;clip-rule:evenodd;stroke-linecap:round;stroke-linejoin:round;stroke-miterlimit:1.5;">
    <g transform="matrix(1,0,0,1,-2161,-2366)">
        <g id="column_add_1st" transform="matrix(1,0,0,1,2161.6,2366.67)">
            <rect x="0" y="0" width="1000" height="1000" style="fill:none;"/>
            <g transform="matrix(1.64765,0,0,1.2666,-3859.47,-3224.5)">
                <path d="M2714.21,2878.4C2702.25,2889.04 2694.39,2906.93 2694.39,2927.18L2694.39,3037.56L2609.54,3037.56C2584.49,3037.56 2564.14,3064.02 2564.14,3096.62C2564.14,3129.22 2584.49,3155.68 2609.54,3155.68L2694.39,3155.68L2694.39,3266.05C2694.39,3286.31 2702.25,3304.2 2714.21,3314.84L2714.21,3325.11L2414.08,3325.11L2414.08,2555.99L2714.21,2555.99L2714.21,2878.4Z" style="fill:rgb(0,62,155);stroke:rgb(0,62,155);stroke-width:14.18px;"/>
            </g>
            <g transform="matrix(0.903844,7.71302e-17,7.71302e-17,0.903844,101.07,93.604)">
                <path d="M554.338,610.102L554.338,430.35C554.338,398.21 580.431,372.116 612.572,372.116C644.712,372.116 670.805,398.21 670.805,430.35L670.805,610.102L850.558,610.102C882.698,610.102 908.791,636.196 908.791,668.336C908.791,700.476 882.698,726.57 850.558,726.57L670.805,726.57L670.805,906.322C670.805,938.462 644.712,964.556 612.572,964.556C580.431,964.556 554.338,938.462 554.338,906.322L554.338,726.57L374.585,726.57C342.445,726.57 316.352,700.476 316.352,668.336C316.352,636.196 342.445,610.102 374.585,610.102L554.338,610.102Z" style="fill:rgb(0,62,155);"/>
            </g>
        </g>
    </g>
</svg>
