<?xml version="1.0" encoding="UTF-8" standalone="no"?>
<!DOCTYPE svg PUBLIC "-//W3C//DTD SVG 1.1//EN" "http://www.w3.org/Graphics/SVG/1.1/DTD/svg11.dtd">
<svg width="100%" height="100%" viewBox="0 0 1000 1000" version="1.1" xmlns="http://www.w3.org/2000/svg" xmlns:xlink="http://www.w3.org/1999/xlink" xml:space="preserve" xmlns:serif="http://www.serif.com/" style="fill-rule:evenodd;clip-rule:evenodd;stroke-linejoin:round;stroke-miterlimit:2;">
    <g transform="matrix(1,0,0,1,-3268,-2366)">
        <g id="column_add_2nd" transform="matrix(1,0,0,1,3268.45,2366.67)">
            <rect x="0" y="0" width="1000" height="1000" style="fill:none;"/>
            <g transform="matrix(1.64765,0,0,1.2666,-3859.47,-3224.5)">
                <path d="M2569.3,3123.97C2576.89,3142.81 2592.07,3155.68 2609.54,3155.68L2694.39,3155.68L2694.39,3266.05C2694.39,3286.31 2702.25,3304.2 2714.21,3314.84L2714.21,3325.11L2414.08,3325.11L2414.08,2555.99L2714.21,2555.99L2714.21,2878.4C2702.25,2889.04 2694.39,2906.93 2694.39,2927.18L2694.39,3037.56L2664.81,3037.56C2661.09,3028.98 2654.1,3024.03 2646.03,3024.03L2597.26,3024.03C2649.94,2949.7 2660.32,2913.78 2660.32,2869.46C2660.32,2803.36 2621.93,2757.13 2563.6,2757.13C2514.25,2757.13 2477.06,2794.07 2462.03,2855.26C2459.05,2865.72 2460.92,2873.55 2463.78,2879.39C2466.4,2884.76 2470.72,2889.23 2476.67,2891.26C2476.66,2891.26 2510.38,2903.51 2510.38,2903.51C2510.68,2903.62 2510.98,2903.71 2511.29,2903.8C2517.98,2905.74 2523.07,2903.99 2527.16,2900.85C2530.95,2897.93 2534.48,2893.3 2536.6,2885.33C2541.32,2868.82 2549.71,2859.06 2561.15,2859.06C2571.44,2859.06 2579.22,2864.1 2579.22,2875.42C2579.22,2888.33 2575.9,2899.1 2566.7,2916.09C2558.92,2930.43 2547.5,2948.07 2531.1,2972.01C2531.09,2972.02 2531.09,2972.03 2531.08,2972.05L2471.24,3059.82C2471.04,3060.11 2470.85,3060.4 2470.67,3060.7C2466.9,3066.82 2465.03,3074.19 2465.03,3081.55L2465.03,3095.84C2465.03,3104.7 2467.63,3111.25 2471.22,3115.92C2474.82,3120.6 2479.85,3123.97 2486.66,3123.97L2569.3,3123.97Z" style="fill:rgb(0,62,155);"/>
            </g>
            <g transform="matrix(0.710776,0,0,0.710776,-3100.17,-681.386)">
                <path d="M4875.64,1948.74L4696.04,1948.74C4689.67,1948.74 4686.13,1945.2 4686.13,1938.84L4686.13,1913.36C4686.13,1909.11 4687.55,1904.86 4690.38,1901.33L4829.1,1744.91C4927.47,1634.51 4950.83,1596.29 4950.83,1546.04C4950.83,1503.57 4918.98,1476.68 4868.73,1476.68C4825.56,1476.68 4791.59,1502.16 4773.89,1550.29C4771.77,1556.65 4768.23,1558.78 4761.86,1557.36L4683.3,1535.42C4677.64,1534.01 4674.1,1530.47 4676.93,1523.39C4705.95,1431.38 4778.14,1375.47 4874.39,1375.47C4984.09,1375.47 5058.4,1439.88 5058.4,1535.42C5058.4,1611.15 5030.8,1669.89 4904.12,1803.66L4859.53,1851.08L4924.9,1851.08C4895.13,1869.6 4875.29,1902.61 4875.29,1940.22C4875.29,1943.09 4875.41,1945.93 4875.64,1948.74Z" style="fill:rgb(0,62,155);"/>
            </g>
            <g transform="matrix(0.903844,7.71302e-17,7.71302e-17,0.903844,101.07,93.604)">
                <path d="M554.338,610.102L554.338,430.35C554.338,398.21 580.431,372.116 612.572,372.116C644.712,372.116 670.805,398.21 670.805,430.35L670.805,610.102L850.558,610.102C882.698,610.102 908.791,636.196 908.791,668.336C908.791,700.476 882.698,726.57 850.558,726.57L670.805,726.57L670.805,906.322C670.805,938.462 644.712,964.556 612.572,964.556C580.431,964.556 554.338,938.462 554.338,906.322L554.338,726.57L374.585,726.57C342.445,726.57 316.352,700.476 316.352,668.336C316.352,636.196 342.445,610.102 374.585,610.102L554.338,610.102Z" style="fill:rgb(0,62,155);"/>
            </g>
        </g>
    </g>
</svg>
