<?xml version="1.0" encoding="UTF-8" standalone="no"?>
<!DOCTYPE svg PUBLIC "-//W3C//DTD SVG 1.1//EN" "http://www.w3.org/Graphics/SVG/1.1/DTD/svg11.dtd">
<svg width="100%" height="100%" viewBox="0 0 1000 1000" version="1.1" xmlns="http://www.w3.org/2000/svg" xmlns:xlink="http://www.w3.org/1999/xlink" xml:space="preserve" xmlns:serif="http://www.serif.com/" style="fill-rule:evenodd;clip-rule:evenodd;stroke-linecap:round;stroke-linejoin:round;stroke-miterlimit:1.5;">
    <g transform="matrix(1,0,0,1,-2149,0)">
        <g id="column_w_size" transform="matrix(1,0,0,1,2149.28,0)">
            <rect x="0" y="0" width="1000" height="1000" style="fill:none;"/>
            <clipPath id="_clip1">
                <rect x="0" y="0" width="1000" height="1000"/>
            </clipPath>
            <g clip-path="url(#_clip1)">
                <path d="M157.479,690.464L157.479,1047.6C157.479,1052.33 153.647,1056.16 148.919,1056.16L0,1056.16C-4.728,1056.16 -8.56,1052.33 -8.56,1047.6L-8.56,-0C-8.56,-4.728 -4.728,-8.56 -0,-8.56L148.919,-8.56C153.647,-8.56 157.479,-4.728 157.479,-0L157.479,357.135L6.475,508.139C2.154,512.46 -0.005,518.131 0,523.799C-0.005,529.468 2.154,535.138 6.475,539.459L157.479,690.464ZM842.521,357.135L842.521,0C842.521,-4.728 846.353,-8.56 851.081,-8.56L1000,-8.56C1004.73,-8.56 1008.56,-4.728 1008.56,0L1008.56,1047.6C1008.56,1052.33 1004.73,1056.16 1000,1056.16L851.081,1056.16C846.353,1056.16 842.521,1052.33 842.521,1047.6L842.521,690.464L993.525,539.459C997.846,535.138 1000,529.468 1000,523.799C1000,518.131 997.846,512.46 993.525,508.139L842.521,357.135Z" style="fill:rgb(0,62,155);"/>
                <g transform="matrix(6.12323e-17,-1,1,6.12323e-17,0,1023.8)">
                    <path d="M500,0C505.669,-0.005 511.339,2.154 515.66,6.475L797.196,288.011C805.829,296.644 805.829,310.661 797.196,319.294L765.913,350.577C757.28,359.21 743.263,359.21 734.63,350.577L544.241,160.188L544.241,839.812L734.63,649.423C743.263,640.79 757.28,640.79 765.913,649.423L797.196,680.706C805.829,689.339 805.829,703.356 797.196,711.989L515.66,993.525C511.339,997.846 505.669,1000 500,1000C494.331,1000 488.661,997.846 484.34,993.525L202.804,711.989C194.171,703.356 194.171,689.339 202.804,680.706L234.087,649.423C242.72,640.79 256.737,640.79 265.37,649.423L455.759,839.812L455.759,160.188L265.37,350.577C256.737,359.21 242.72,359.21 234.087,350.577L202.804,319.294C194.171,310.661 194.171,296.644 202.804,288.011L484.34,6.475C488.661,2.154 494.331,-0.005 500,0Z" style="fill:none;stroke:rgb(0,62,155);stroke-width:35.17px;"/>
                </g>
            </g>
        </g>
    </g>
</svg>
