<?xml version="1.0" encoding="UTF-8" standalone="no"?>
<!DOCTYPE svg PUBLIC "-//W3C//DTD SVG 1.1//EN" "http://www.w3.org/Graphics/SVG/1.1/DTD/svg11.dtd">
<svg width="100%" height="100%" viewBox="0 0 1000 1000" version="1.1" xmlns="http://www.w3.org/2000/svg" xmlns:xlink="http://www.w3.org/1999/xlink" xml:space="preserve" xmlns:serif="http://www.serif.com/" style="fill-rule:evenodd;clip-rule:evenodd;stroke-linecap:round;stroke-linejoin:round;stroke-miterlimit:1.5;">
    <g transform="matrix(1,0,0,1,-2175,-1158)">
        <g id="exp_column" transform="matrix(1,0,0,1,2175.49,1158.05)">
            <rect x="0" y="0" width="1000" height="1000" style="fill:none;"/>
            <clipPath id="_clip1">
                <rect x="0" y="0" width="1000" height="1000"/>
            </clipPath>
            <g clip-path="url(#_clip1)">
                <g transform="matrix(1.24795e-16,1.33797,-1.33797,-1.24795e-16,2638.53,-3216.6)">
                    <path d="M2661,1404.17C2788.27,1404.17 2891.6,1507.5 2891.6,1634.77C2891.6,1762.04 2788.27,1865.37 2661,1865.37C2533.73,1865.37 2430.4,1762.04 2430.4,1634.77C2430.4,1507.5 2533.73,1404.17 2661,1404.17ZM2896.83,1679.02L3128.7,1750.25C3132.21,1751.32 3134.18,1755.04 3133.1,1758.55L3129.2,1771.24C3128.12,1774.75 3124.41,1776.72 3120.9,1775.64L2889.03,1704.41C2885.52,1703.34 2883.55,1699.62 2884.63,1696.11L2888.53,1683.42C2889.61,1679.91 2893.32,1677.94 2896.83,1679.02Z" style="fill:none;stroke:rgb(0,62,155);stroke-width:45.06px;"/>
                </g>
                <g transform="matrix(0.731199,6.23975e-17,6.23975e-17,0.731199,281.141,287.074)">
                    <path d="M554.338,610.102L554.338,453.009C554.338,420.869 580.431,394.775 612.572,394.775C644.712,394.775 670.805,420.869 670.805,453.009L670.805,610.102L827.899,610.102C860.039,610.102 886.132,636.196 886.132,668.336C886.132,700.476 860.039,726.57 827.899,726.57L670.805,726.57L670.805,883.663C670.805,915.803 644.712,941.897 612.572,941.897C580.431,941.897 554.338,915.803 554.338,883.663L554.338,726.57L397.244,726.57C365.104,726.57 339.011,700.476 339.011,668.336C339.011,636.196 365.104,610.102 397.244,610.102L554.338,610.102Z" style="fill:rgb(0,62,155);"/>
                </g>
            </g>
        </g>
    </g>
</svg>
