<?xml version="1.0" encoding="UTF-8" standalone="no"?>
<!DOCTYPE svg PUBLIC "-//W3C//DTD SVG 1.1//EN" "http://www.w3.org/Graphics/SVG/1.1/DTD/svg11.dtd">
<svg width="100%" height="100%" viewBox="0 0 500 498" version="1.1" xmlns="http://www.w3.org/2000/svg" xmlns:xlink="http://www.w3.org/1999/xlink" xml:space="preserve" xmlns:serif="http://www.serif.com/" style="fill-rule:evenodd;clip-rule:evenodd;stroke-linecap:round;stroke-linejoin:round;">
    <g transform="matrix(1,0,0,1,-1276.18,-557.88)">
        <g transform="matrix(1,0,0,1,1042.99,557.151)">
            <g transform="matrix(1.02308,0,0,1.02308,3.77947,8.92154)">
                <g transform="matrix(1.7656,0,0,1.7656,-2264.69,-1250.28)">
                    <circle cx="1547.99" cy="842.151" r="135" style="fill:white;"/>
                </g>
                <g transform="matrix(1,0,0,1,-11.546,0.655217)">
                    <g id="path234" transform="matrix(1,0,0,1,201.123,-149.214)">
                        <path d="M278.856,146.394C278.856,146.394 278.856,146.394 278.856,146.394C148.098,146.394 40.5,253.991 40.5,384.75C40.5,384.75 40.5,384.75 40.5,384.75C40.557,474.325 91.104,556.605 170.981,597.145C186.433,589.196 200.547,578.785 212.679,566.18C179.98,574.451 144.641,564.392 120.054,539.812C110.851,530.591 103.528,519.683 98.52,507.741C123.814,522.146 153.796,524.643 180.141,514.538C148.163,514.619 118.062,496.931 101.572,468.371C95.503,457.833 91.533,446.23 89.903,434.253C107.403,451.536 130.81,461.025 154.709,460.525C126.378,432.948 110.283,394.38 110.256,353.994C110.276,334.385 114.091,314.98 121.471,296.94C131.453,333.263 154.309,363.377 184.364,382.077C184.353,381.859 184.343,381.642 184.333,381.425C184.333,381.425 184.333,381.425 184.333,381.425C184.333,317.437 233.712,264.784 293.72,264.784C293.72,264.784 293.72,264.784 293.72,264.784L293.72,264.781C333.075,264.789 369.506,287.443 388.893,323.962C388.903,323.982 388.914,324.003 388.925,324.023C392.197,329.613 395.219,335.35 397.982,341.218C418.623,334.397 437.096,321.638 450.86,304.156C445.683,324.655 434.81,343.27 419.499,357.85C434.83,350.451 448.274,339.656 458.808,326.284C452.027,353.179 435.823,375.712 414.27,390.753C417.241,405.057 418.776,419.632 418.85,434.253C418.847,510.85 378.748,581.91 313.743,620.515C430.109,603.298 517.2,502.383 517.212,384.75C517.212,253.992 409.615,146.394 278.857,146.394L278.856,146.394Z" style="fill:rgb(29,155,240);fill-rule:nonzero;stroke:rgb(29,54,127);stroke-width:11.68px;"/>
                    </g>
                    <g id="path234-0" transform="matrix(1,0,0,1,201.123,-149.214)">
                        <path d="M278.856,146.394C225.101,146.402 172.897,164.596 130.78,198L261.743,198L288.523,244.384L315.303,198L426.967,198C384.841,164.589 332.624,146.395 278.856,146.394Z" style="fill:rgb(240,240,240);fill-rule:nonzero;"/>
                    </g>
                    <g transform="matrix(1,0,0,1,201.123,-149.214)">
                        <path d="M278.856,140.551C333.941,140.553 387.438,159.193 430.597,193.423C432.545,194.967 433.302,197.575 432.484,199.922C431.666,202.269 429.452,203.842 426.967,203.842L318.676,203.842L293.582,247.305C292.539,249.113 290.61,250.226 288.523,250.226C286.436,250.226 284.507,249.113 283.463,247.305L258.37,203.842L130.78,203.842C128.294,203.842 126.081,202.269 125.263,199.922C124.445,197.575 125.202,194.967 127.149,193.423C170.299,159.2 223.783,140.56 278.856,140.551ZM278.857,152.236C232.312,152.243 186.959,166.227 148.623,192.158L261.743,192.158C263.83,192.158 265.759,193.271 266.802,195.079L288.523,232.7L310.244,195.079C311.287,193.271 313.216,192.158 315.303,192.158C315.303,192.158 409.124,192.158 409.124,192.158C370.778,166.221 325.413,152.237 278.857,152.236Z" style="fill:rgb(29,54,127);"/>
                    </g>
                </g>
            </g>
        </g>
    </g>
</svg>
