<?xml version="1.0" encoding="UTF-8" standalone="no"?>
<!DOCTYPE svg PUBLIC "-//W3C//DTD SVG 1.1//EN" "http://www.w3.org/Graphics/SVG/1.1/DTD/svg11.dtd">
<svg width="100%" height="100%" viewBox="0 0 1000 1000" version="1.1" xmlns="http://www.w3.org/2000/svg" xmlns:xlink="http://www.w3.org/1999/xlink" xml:space="preserve" xmlns:serif="http://www.serif.com/" style="fill-rule:evenodd;clip-rule:evenodd;stroke-linejoin:round;stroke-miterlimit:2;">
    <g transform="matrix(1,0,0,1,-1063,-1159)">
        <g id="notice_column" transform="matrix(1,0,0,1,1063.36,1159.53)">
            <rect x="0" y="0" width="1000" height="1000" style="fill:none;"/>
            <g transform="matrix(1,0,0,1,-23.7273,6.28795)">
                <g transform="matrix(1.74773,0,0,1.60518,-270.863,-152.06)">
                    <path d="M456.357,590.825L262.584,590.825L215.922,590.825C197.273,590.825 182.132,574.668 182.132,554.768C182.132,508.517 209.872,498.273 215.922,474.518C237.429,390.066 260.561,306.062 306.102,245.623C338.744,202.302 369.243,171.087 416.589,160.489C416.471,159.189 416.411,157.871 416.411,156.538C416.411,134.022 433.542,115.743 454.642,115.743C475.741,115.743 492.872,134.022 492.872,156.538C492.872,157.703 492.826,158.858 492.736,159.999C543.568,170.096 571.681,201.612 603.795,245.623C647.896,306.062 659.81,388.23 693.362,474.518C700.778,493.59 719.528,507.434 725.379,536.313C719.035,528.391 709.699,523.382 699.297,523.382L621.918,523.382L621.918,449.176C621.918,428.386 606.415,411.507 587.321,411.507C568.227,411.507 552.725,428.386 552.725,449.176L552.725,523.382L477.542,523.382C458.447,523.382 442.945,540.261 442.945,561.051C442.945,573.154 448.199,583.931 456.357,590.825ZM533.795,609.716C533.795,653.402 498.328,688.87 454.642,688.87C410.955,688.87 375.488,653.402 375.488,609.716L533.795,609.716Z" style="fill:rgb(0,62,155);"/>
                </g>
                <g transform="matrix(0.952545,0,0,0.952545,47.4546,33.7274)">
                    <g transform="matrix(5.94622e-17,0.820539,-1.09853,4.99976e-17,2819.53,220.555)">
                        <path d="M908.24,1889.87C908.24,1867.26 883.656,1848.89 853.377,1848.89L415.981,1848.89C385.701,1848.89 361.118,1867.26 361.118,1889.87C361.118,1912.49 385.701,1930.85 415.981,1930.85L853.377,1930.85C883.656,1930.85 908.24,1912.49 908.24,1889.87Z" style="fill:rgb(0,62,155);"/>
                    </g>
                    <g transform="matrix(0.908226,-9.21871e-18,-1.91136e-17,1.09853,169.024,-1325.68)">
                        <path d="M908.24,1889.87C908.24,1867.26 886.03,1848.89 858.674,1848.89L410.684,1848.89C383.328,1848.89 361.118,1867.26 361.118,1889.87C361.118,1912.49 383.328,1930.85 410.684,1930.85L858.674,1930.85C886.03,1930.85 908.24,1912.49 908.24,1889.87Z" style="fill:rgb(0,62,155);"/>
                    </g>
                    <g transform="matrix(5.94622e-17,0.820539,-1.09853,4.99976e-17,2819.53,220.555)">
                        <path d="M908.24,1889.87C908.24,1867.26 883.656,1848.89 853.377,1848.89L415.981,1848.89C385.701,1848.89 361.118,1867.26 361.118,1889.87C361.118,1912.49 385.701,1930.85 415.981,1930.85L853.377,1930.85C883.656,1930.85 908.24,1912.49 908.24,1889.87Z" style="fill:rgb(0,62,155);"/>
                    </g>
                    <g transform="matrix(0.908226,-9.21871e-18,-1.91136e-17,1.09853,169.024,-1325.68)">
                        <path d="M908.24,1889.87C908.24,1867.26 886.03,1848.89 858.674,1848.89L410.684,1848.89C383.328,1848.89 361.118,1867.26 361.118,1889.87C361.118,1912.49 383.328,1930.85 410.684,1930.85L858.674,1930.85C886.03,1930.85 908.24,1912.49 908.24,1889.87Z" style="fill:rgb(0,62,155);"/>
                    </g>
                </g>
            </g>
        </g>
    </g>
</svg>
