<?xml version="1.0" encoding="UTF-8" standalone="no"?>
<!DOCTYPE svg PUBLIC "-//W3C//DTD SVG 1.1//EN" "http://www.w3.org/Graphics/SVG/1.1/DTD/svg11.dtd">
<svg width="100%" height="100%" viewBox="0 0 1000 1000" version="1.1" xmlns="http://www.w3.org/2000/svg" xmlns:xlink="http://www.w3.org/1999/xlink" xml:space="preserve" xmlns:serif="http://www.serif.com/" style="fill-rule:evenodd;clip-rule:evenodd;stroke-linecap:round;stroke-linejoin:round;stroke-miterlimit:1.5;">
    <g transform="matrix(1,0,0,1,-4306,0)">
        <g id="pinned" transform="matrix(1,0,0,1,4306.76,0)">
            <rect x="0" y="0" width="1000" height="1000" style="fill:none;"/>
            <g transform="matrix(0.66298,0,0,1.09704,-1820.64,-27.7336)">
                <path d="M3286.17,558.948L3286.17,497.52L2817.83,497.52C2802.79,497.52 2790.58,490.141 2790.58,481.052C2790.58,471.964 2802.79,464.584 2817.83,464.584L3286.17,464.584L3286.17,257.366C3286.17,248.345 3298.29,241.022 3313.22,241.022C3317.89,240.996 3322.62,241.701 3326.95,243.212L3476.5,295.391C3479.79,296.539 3482.53,298.042 3484.66,299.775C3488.03,301.125 3490.94,302.952 3493.09,305.206L3571.04,386.795L3286.17,558.948ZM3740.52,387.413L4044.04,387.413L4163.9,314.982C4167.08,313.057 4170.87,311.713 4174.89,310.95C4177.45,310.462 4180.18,310.198 4183.01,310.198C4183.4,310.198 4183.79,310.203 4184.18,310.213C4185.44,310.246 4186.67,310.33 4187.88,310.463C4193.1,311.036 4198.11,312.543 4202.14,314.982C4206.18,317.422 4208.67,320.444 4209.62,323.603C4209.84,324.332 4209.98,325.078 4210.03,325.838C4210.05,326.072 4210.06,326.307 4210.06,326.543L4210.06,635.562C4210.06,636.947 4209.77,638.292 4209.23,639.577C4208.08,642.341 4205.72,644.959 4202.14,647.119C4199.25,648.865 4195.87,650.133 4192.27,650.923C4189.38,651.559 4186.26,651.906 4183.01,651.906C4178.81,651.906 4174.83,651.326 4171.28,650.291C4168.61,649.514 4166.11,648.457 4163.9,647.119L4044.05,574.692L3571.63,574.692L3493.09,656.899C3490.94,659.153 3488.03,660.98 3484.66,662.33C3482.53,664.062 3479.79,665.566 3476.5,666.713L3326.95,718.893C3322.62,720.404 3317.89,721.109 3313.22,721.083C3298.29,721.083 3286.17,713.76 3286.17,704.739L3286.17,661.988L3740.52,387.413Z" style="fill:rgb(0,62,155);"/>
            </g>
            <g transform="matrix(0.707107,0.707107,-0.812798,0.812798,-2551.14,-3514.29)">
                <path d="M5035.98,202.372L5035.98,982.616C5035.98,992.21 5027.03,1000 5016,1000L4976.03,1000C4965.01,1000 4956.05,992.21 4956.05,982.616L4956.05,202.372C4956.05,192.777 4965.01,184.988 4976.03,184.988L5016,184.988C5027.03,184.988 5035.98,192.777 5035.98,202.372Z" style="fill:none;stroke:rgb(0,62,155);stroke-width:32.64px;"/>
            </g>
        </g>
    </g>
</svg>
