<?xml version="1.0" encoding="UTF-8" standalone="no"?>
<!DOCTYPE svg PUBLIC "-//W3C//DTD SVG 1.1//EN" "http://www.w3.org/Graphics/SVG/1.1/DTD/svg11.dtd">
<svg width="100%" height="100%" viewBox="0 0 1000 1000" version="1.1" xmlns="http://www.w3.org/2000/svg" xmlns:xlink="http://www.w3.org/1999/xlink" xml:space="preserve" xmlns:serif="http://www.serif.com/" style="fill-rule:evenodd;clip-rule:evenodd;stroke-linecap:round;stroke-linejoin:round;stroke-miterlimit:1.5;">
    <g transform="matrix(1,0,0,1,-1057,-2366)">
        <g id="profile_delete" transform="matrix(1,0,0,1,1057.96,2366.67)">
            <rect x="0" y="0" width="1000" height="1000" style="fill:none;"/>
            <g transform="matrix(-1.22786,-1.50369e-16,1.50369e-16,-1.22786,1116.4,4069.5)">
                <path d="M889.132,2557.8L889.132,3273.26L782.089,3273.26C782.455,3271.58 782.647,3269.84 782.647,3268.06L782.647,3073.18C782.647,3059.74 771.732,3048.82 758.288,3048.82L323.528,3048.82C310.084,3048.82 299.169,3059.74 299.169,3073.18L299.169,3268.06C299.169,3269.84 299.361,3271.58 299.726,3273.26L247.383,3273.26L114.9,3140.78L114.9,2690.19C131.249,2691.36 147.486,2691.63 161.989,2690.93L161.989,2816.06L254.655,2816.06L254.655,2664.82C271.928,2656.48 288.165,2647.04 304.548,2637.19C305.964,2636.34 307.394,2635.48 308.836,2634.61L308.836,2744.91L401.502,2744.91L401.502,2584.3C419.03,2576.06 437.187,2568.41 455.683,2561.89L455.683,2816.06L548.349,2816.06L548.349,2541.5C567.679,2540.22 585.544,2541.2 602.53,2543.55L602.53,2886.14L695.196,2886.14L695.196,2565.98C712.687,2570.75 730.481,2575.08 749.377,2577.76L749.377,2764L842.043,2764L842.043,2574.39C858.602,2570.41 874.288,2564.65 889.132,2557.8Z" style="fill:rgb(0,62,155);stroke:rgb(0,62,155);stroke-width:31.74px;"/>
            </g>
            <g transform="matrix(-0.931417,-1.14066e-16,1.56497e-16,-1.27789,875.302,4236.17)">
                <path d="M630.023,3115.8L630.023,3287.36C630.023,3291.4 625.526,3294.68 619.987,3294.68L539.692,3294.68C534.153,3294.68 529.655,3291.4 529.655,3287.36L529.655,3115.8C529.655,3111.76 534.153,3108.48 539.692,3108.48L619.987,3108.48C625.526,3108.48 630.023,3111.76 630.023,3115.8Z" style="fill:rgb(0,62,155);"/>
            </g>
        </g>
    </g>
</svg>
