<?xml version="1.0" encoding="UTF-8" standalone="no"?>
<!DOCTYPE svg PUBLIC "-//W3C//DTD SVG 1.1//EN" "http://www.w3.org/Graphics/SVG/1.1/DTD/svg11.dtd">
<svg width="100%" height="100%" viewBox="0 0 1000 1000" version="1.1" xmlns="http://www.w3.org/2000/svg" xmlns:xlink="http://www.w3.org/1999/xlink" xml:space="preserve" xmlns:serif="http://www.serif.com/" style="fill-rule:evenodd;clip-rule:evenodd;stroke-linecap:round;stroke-linejoin:round;stroke-miterlimit:1.5;">
    <g transform="matrix(1,0,0,1,0,-2366)">
        <g id="profile_save" transform="matrix(1,0,0,1,0,2366.67)">
            <rect x="0" y="0" width="1000" height="1000" style="fill:none;"/>
            <g transform="matrix(1.11054,0,0,1.11054,-55.268,-54.0294)">
                <g transform="matrix(1.10564,0,0,1.10564,-55.0502,-2691.04)">
                    <path d="M299.726,3273.26L247.383,3273.26L114.9,3140.78L114.9,2499.03L889.132,2499.03L889.132,3273.26L782.089,3273.26C782.455,3271.58 782.647,3269.84 782.647,3268.06L782.647,3073.18C782.647,3059.74 771.732,3048.82 758.288,3048.82L323.528,3048.82C310.084,3048.82 299.169,3059.74 299.169,3073.18L299.169,3268.06C299.169,3269.84 299.361,3271.58 299.726,3273.26ZM842.704,2547.92C842.704,2538.47 835.029,2530.79 825.575,2530.79L178.457,2530.79C169.004,2530.79 161.328,2538.47 161.328,2547.92L161.328,2941.88C161.328,2951.34 169.004,2959.01 178.457,2959.01L825.575,2959.01C835.029,2959.01 842.704,2951.34 842.704,2941.88L842.704,2547.92Z" style="fill:rgb(0,62,155);stroke:rgb(0,62,155);stroke-width:31.74px;"/>
                </g>
                <g transform="matrix(0.83871,0,0,1.1507,162.053,-2863.18)">
                    <path d="M630.023,3115.8L630.023,3287.36C630.023,3291.4 625.526,3294.68 619.987,3294.68L539.692,3294.68C534.153,3294.68 529.655,3291.4 529.655,3287.36L529.655,3115.8C529.655,3111.76 534.153,3108.48 539.692,3108.48L619.987,3108.48C625.526,3108.48 630.023,3111.76 630.023,3115.8Z" style="fill:rgb(0,62,155);"/>
                </g>
            </g>
        </g>
    </g>
</svg>
