<?xml version="1.0" encoding="UTF-8" standalone="no"?>
<!DOCTYPE svg PUBLIC "-//W3C//DTD SVG 1.1//EN" "http://www.w3.org/Graphics/SVG/1.1/DTD/svg11.dtd">
<svg width="100%" height="100%" viewBox="0 0 1000 1000" version="1.1" xmlns="http://www.w3.org/2000/svg" xmlns:xlink="http://www.w3.org/1999/xlink" xml:space="preserve" xmlns:serif="http://www.serif.com/" style="fill-rule:evenodd;clip-rule:evenodd;stroke-linejoin:round;stroke-miterlimit:2;">
    <g transform="matrix(1,0,0,1,-4341,-1159)">
        <g id="second_view" transform="matrix(1,0,0,1,4341.76,1159.53)">
            <rect x="0" y="0" width="1000" height="1000" style="fill:none;"/>
            <clipPath id="_clip1">
                <rect x="0" y="0" width="1000" height="1000"/>
            </clipPath>
            <g clip-path="url(#_clip1)">
                <g transform="matrix(1,0,0,1,-70.6332,1)">
                    <path d="M398.258,694.591L240.803,694.591C240.089,694.591 239.383,694.561 238.684,694.503C238.045,694.561 237.398,694.591 236.744,694.591C225.038,694.591 215.535,685.087 215.535,673.382L215.535,544.172L70.633,544.172L70.633,0L121.169,0L121.169,83.782L152.783,83.782L152.783,-0.746C152.783,-14.692 164.105,-26.014 178.05,-26.014C191.996,-26.014 203.318,-14.692 203.318,-0.746L203.318,240.02L424.396,240.02C407.464,254.17 392.648,271.11 380.231,290.556L178.05,290.556C164.105,290.556 152.783,279.234 152.783,265.288L152.783,139.348L121.169,139.348L121.169,472.217L152.783,472.217L152.783,344.217C152.783,330.271 164.105,318.949 178.05,318.949L364.647,318.949C359.676,329.569 355.312,340.759 351.586,352.485C349.085,359.112 348.922,364.733 350.047,369.485L203.318,369.485L203.318,493.636L574.346,493.636C562.604,508.298 548.485,524.903 531.599,544.172L257.952,544.172L257.952,644.055L443.077,644.055L398.258,694.591ZM717.753,240.02L883.314,240.02L883.314,-4.805C883.314,-16.51 892.818,-26.014 904.523,-26.014C916.228,-26.014 925.731,-16.51 925.731,-4.805L925.731,269.347C925.731,281.053 916.228,290.556 904.523,290.556C903.869,290.556 903.222,290.526 902.582,290.468C901.884,290.526 901.177,290.556 900.464,290.556L756.602,290.556C747.077,271.298 733.971,254.3 717.753,240.02ZM767.551,318.949L900.464,318.949C901.177,318.949 901.884,318.979 902.582,319.037C903.222,318.979 903.869,318.949 904.523,318.949C916.228,318.949 925.731,328.452 925.731,340.158L925.731,493.636L1070.63,493.636L1070.63,1013.54L1020.1,1013.54L1020.1,929.758L988.484,929.758L988.484,1014.28C988.484,1028.23 977.162,1039.55 963.216,1039.55C949.27,1039.55 937.948,1028.23 937.948,1014.28L937.948,773.52L791.777,773.52L791.777,722.984L963.216,722.984C977.162,722.984 988.484,734.306 988.484,748.252L988.484,874.192L1020.1,874.192L1020.1,544.172L988.484,544.172L988.484,669.323C988.484,683.268 977.162,694.591 963.216,694.591L791.306,694.591C788.833,679.541 776.914,670.311 762.289,670.311L599.409,670.311L613.535,655.288C617.134,651.488 620.656,647.744 624.103,644.055L937.948,644.055L937.948,544.172L709.22,544.172C722.729,525.949 733.622,509.284 742.35,493.636L883.314,493.636L883.314,369.485L774.621,369.485C774.484,351.638 772.064,334.73 767.551,318.949ZM359.785,773.52L257.952,773.52L257.952,1018.35C257.952,1030.05 248.449,1039.55 236.744,1039.55C225.038,1039.55 215.535,1030.05 215.535,1018.35L215.535,744.192C215.535,732.487 225.038,722.984 236.744,722.984C237.398,722.984 238.045,723.014 238.684,723.072C239.383,723.013 240.089,722.984 240.803,722.984L373.076,722.984L368.98,727.603C368.761,727.849 368.548,728.102 368.342,728.359C362.622,735.51 359.785,744.098 359.785,752.679L359.785,773.52ZM625.656,369.485L497.45,369.485C513.026,344.659 535.795,331.262 563.633,331.262C596.384,331.262 619.868,345.071 625.656,369.485Z" style="fill:rgb(0,62,155);"/>
                </g>
                <g transform="matrix(1.00967,0,0,1.00967,-4422.82,-1178.18)">
                    <path d="M4696.04,1948.74L5065.48,1948.74C5071.14,1948.74 5075.39,1945.2 5075.39,1938.84L5075.39,1861.69C5075.39,1855.32 5071.14,1851.08 5065.48,1851.08L4859.53,1851.08L4904.12,1803.66C5030.8,1669.89 5058.4,1611.15 5058.4,1535.42C5058.4,1439.88 4984.09,1375.47 4874.39,1375.47C4778.14,1375.47 4705.95,1431.38 4676.93,1523.39C4674.1,1530.47 4677.64,1534.01 4683.3,1535.42L4761.86,1557.36C4768.23,1558.78 4771.77,1556.65 4773.89,1550.29C4791.59,1502.16 4825.56,1476.68 4868.73,1476.68C4918.98,1476.68 4950.83,1503.57 4950.83,1546.04C4950.83,1596.29 4927.47,1634.51 4829.1,1744.91L4690.38,1901.33C4687.55,1904.86 4686.13,1909.11 4686.13,1913.36L4686.13,1938.84C4686.13,1945.2 4689.67,1948.74 4696.04,1948.74Z" style="fill:rgb(0,62,155);fill-rule:nonzero;"/>
                </g>
            </g>
        </g>
    </g>
</svg>
