<?xml version="1.0" encoding="UTF-8" standalone="no"?>
<!DOCTYPE svg PUBLIC "-//W3C//DTD SVG 1.1//EN" "http://www.w3.org/Graphics/SVG/1.1/DTD/svg11.dtd">
<svg width="100%" height="100%" viewBox="0 0 1000 1000" version="1.1" xmlns="http://www.w3.org/2000/svg" xmlns:xlink="http://www.w3.org/1999/xlink" xml:space="preserve" xmlns:serif="http://www.serif.com/" style="fill-rule:evenodd;clip-rule:evenodd;stroke-linecap:round;stroke-linejoin:round;stroke-miterlimit:1.5;">
    <g transform="matrix(1,0,0,1,-2196,-3507)">
        <g id="settings" transform="matrix(1,0,0,1,2196.42,3507.37)">
            <rect x="0" y="0" width="1000" height="1000" style="fill:none;"/>
            <g transform="matrix(0.748227,0,0,0.827826,-251.173,-995.953)">
                <path d="M512.401,1710.83L461.762,1684.41C425.067,1665.26 412.476,1622.79 433.662,1589.62L510.433,1469.43C531.619,1436.27 578.611,1424.89 615.305,1444.04L666.107,1470.55C718.627,1427.44 781.262,1394.24 850.394,1374.2L850.394,1321.36C850.394,1283.06 884.794,1251.97 927.165,1251.97L1080.71,1251.97C1123.08,1251.97 1157.48,1283.06 1157.48,1321.36L1157.48,1374.2C1226.61,1394.24 1289.25,1427.44 1341.77,1470.55L1392.57,1444.04C1429.26,1424.89 1476.26,1436.27 1497.44,1469.43L1574.21,1589.62C1595.4,1622.79 1582.81,1665.26 1546.11,1684.41L1495.47,1710.83C1502.89,1741.86 1506.79,1774.07 1506.79,1807.09C1506.79,1840.11 1502.89,1872.31 1495.47,1903.34L1546.11,1929.76C1582.81,1948.91 1595.4,1991.39 1574.21,2024.55L1497.44,2144.74C1476.26,2177.91 1429.26,2189.29 1392.57,2170.14L1341.77,2143.63C1289.25,2186.73 1226.61,2219.93 1157.48,2239.98L1157.48,2292.82C1157.48,2331.11 1123.08,2362.2 1080.71,2362.2L927.165,2362.2C884.794,2362.2 850.394,2331.11 850.394,2292.82L850.394,2239.98C781.262,2219.93 718.627,2186.73 666.107,2143.63L615.305,2170.14C578.611,2189.29 531.619,2177.91 510.433,2144.74L433.662,2024.55C412.476,1991.39 425.067,1948.91 461.762,1929.76L512.401,1903.34C504.987,1872.31 501.083,1840.11 501.083,1807.09C501.083,1774.07 504.987,1741.86 512.401,1710.83ZM1003.94,1645.76C905.423,1645.76 825.443,1718.05 825.443,1807.09C825.443,1896.13 905.423,1968.42 1003.94,1968.42C1102.45,1968.42 1182.43,1896.13 1182.43,1807.09C1182.43,1718.05 1102.45,1645.76 1003.94,1645.76Z" style="fill:none;stroke:rgb(0,62,155);stroke-width:94.12px;"/>
            </g>
        </g>
    </g>
</svg>
