<?xml version="1.0" encoding="UTF-8" standalone="no"?>
<!DOCTYPE svg PUBLIC "-//W3C//DTD SVG 1.1//EN" "http://www.w3.org/Graphics/SVG/1.1/DTD/svg11.dtd">
<svg width="100%" height="100%" viewBox="0 0 1000 1000" version="1.1" xmlns="http://www.w3.org/2000/svg" xmlns:xlink="http://www.w3.org/1999/xlink" xml:space="preserve" xmlns:serif="http://www.serif.com/" style="fill-rule:evenodd;clip-rule:evenodd;stroke-linejoin:round;stroke-miterlimit:2;">
    <g transform="matrix(1,0,0,1,-3258,-1159)">
        <g id="single_view" transform="matrix(1,0,0,1,3258.62,1159.53)">
            <rect x="0" y="0" width="1000" height="1000" style="fill:none;"/>
            <clipPath id="_clip1">
                <rect x="0" y="0" width="1000" height="1000"/>
            </clipPath>
            <g clip-path="url(#_clip1)">
                <path d="M635.223,717.716L895.466,717.716C897.216,717.716 898.931,717.84 900.6,718.079C901.872,717.84 903.183,717.716 904.523,717.716C916.228,717.716 925.731,727.219 925.731,738.925L925.731,1075.88C925.731,1087.59 916.228,1097.09 904.523,1097.09C903.869,1097.09 903.222,1097.06 902.582,1097C901.884,1097.06 901.177,1097.09 900.464,1097.09L178.05,1097.09C164.105,1097.09 152.783,1085.77 152.783,1071.82L152.783,942.287L121.169,942.287L121.169,1000L70.633,1000L70.633,0L121.169,0L121.169,83.782L152.783,83.782L152.783,-0.746C152.783,-14.692 164.105,-26.014 178.05,-26.014C191.996,-26.014 203.318,-14.692 203.318,-0.746L203.318,240.02L455.74,240.02L393.731,290.556L178.05,290.556C164.105,290.556 152.783,279.234 152.783,265.288L152.783,139.348L121.169,139.348L121.169,472.217L152.783,472.217L152.783,344.217C152.783,330.271 164.105,318.949 178.05,318.949L369.017,318.949C362.252,335.116 363.493,354.086 373.39,369.485L203.318,369.485L203.318,647.787L500.896,647.787L500.896,698.323L184.845,698.323C183.559,698.323 182.291,698.263 181.045,698.147C180.063,698.263 179.064,698.323 178.05,698.323C164.105,698.323 152.783,687 152.783,673.055L152.783,527.783L121.169,527.783L121.169,886.721L152.783,886.721L152.783,742.984C152.783,729.038 164.105,717.716 178.05,717.716C179.064,717.716 180.063,717.776 181.045,717.892C182.291,717.776 183.559,717.716 184.845,717.716L500.896,717.716L500.896,768.252L203.318,768.252L203.318,1046.55L883.314,1046.55L883.314,768.252L635.223,768.252L635.223,717.716ZM635.223,240.02L883.314,240.02L883.314,-4.805C883.314,-16.51 892.818,-26.014 904.523,-26.014C916.228,-26.014 925.731,-16.51 925.731,-4.805L925.731,269.347C925.731,281.053 916.228,290.556 904.523,290.556C903.869,290.556 903.222,290.526 902.582,290.468C901.884,290.526 901.177,290.556 900.464,290.556L635.223,290.556L635.223,240.02ZM635.223,318.949L900.464,318.949C901.177,318.949 901.884,318.979 902.582,319.037C903.222,318.979 903.869,318.949 904.523,318.949C916.228,318.949 925.731,328.452 925.731,340.158L925.731,677.114C925.731,688.819 916.228,698.323 904.523,698.323C903.183,698.323 901.872,698.198 900.6,697.96C898.931,698.198 897.216,698.323 895.466,698.323L635.223,698.323L635.223,647.787L883.314,647.787L883.314,369.485L635.223,369.485L635.223,318.949Z" style="fill:rgb(0,62,155);"/>
                <g transform="matrix(0.535993,0,0,2.75673,-1419.27,-3320.05)">
                    <path d="M3679.97,1277.89L3679.98,1277.89C3683.28,1277.81 3686.65,1277.76 3690.07,1277.76L3726.12,1277.76C3767.12,1277.76 3800.4,1284.23 3800.4,1292.2L3800.4,1478.33C3800.4,1486.3 3767.12,1492.77 3726.12,1492.77L3690.07,1492.77C3649.08,1492.77 3615.8,1486.3 3615.8,1478.33C3615.8,1478.33 3615.8,1329.52 3615.8,1329.52L3520.72,1345.38C3489.61,1350.57 3442.68,1349.87 3415.99,1343.82L3392.51,1338.5C3365.83,1332.45 3369.42,1323.32 3400.53,1318.13L3621.74,1281.24C3638.45,1278.45 3659.72,1277.37 3679.97,1277.89Z" style="fill:rgb(0,62,155);"/>
                </g>
            </g>
        </g>
    </g>
</svg>
