<?xml version="1.0" encoding="UTF-8" standalone="no"?>
<!DOCTYPE svg PUBLIC "-//W3C//DTD SVG 1.1//EN" "http://www.w3.org/Graphics/SVG/1.1/DTD/svg11.dtd">
<svg width="100%" height="100%" viewBox="0 0 1000 298" version="1.1" xmlns="http://www.w3.org/2000/svg" xmlns:xlink="http://www.w3.org/1999/xlink" xml:space="preserve" xmlns:serif="http://www.serif.com/" style="fill-rule:evenodd;clip-rule:evenodd;stroke-linejoin:round;stroke-miterlimit:2;">
    <g transform="matrix(1,0,0,1,2.4869e-14,-101.244)">
        <g transform="matrix(1.02575,0,0,1.02575,-5.23436,14.3182)">
            <g transform="matrix(0.964753,0,0,0.964753,-139.821,-2.24575)">
                <g transform="matrix(167.526,0,0,167.526,140,220)">
                    <path d="M0.461,0.052C0.693,0.052 0.862,-0.111 0.862,-0.36C0.862,-0.61 0.693,-0.773 0.461,-0.773C0.23,-0.773 0.061,-0.61 0.061,-0.36C0.061,-0.111 0.23,0.052 0.461,0.052ZM0.212,-0.36C0.212,-0.517 0.309,-0.63 0.461,-0.63C0.614,-0.63 0.71,-0.517 0.71,-0.36C0.71,-0.203 0.614,-0.091 0.461,-0.091C0.309,-0.091 0.212,-0.203 0.212,-0.36Z" style="fill-rule:nonzero;"/>
                </g>
                <g transform="matrix(167.526,0,0,167.526,294.626,220)">
                    <path d="M0.088,0.273L0.2,0.273C0.209,0.273 0.214,0.268 0.214,0.259L0.214,-0.031C0.256,0.019 0.317,0.048 0.391,0.048C0.551,0.048 0.653,-0.071 0.653,-0.243C0.653,-0.416 0.551,-0.535 0.391,-0.535C0.313,-0.535 0.248,-0.502 0.208,-0.447L0.205,-0.51C0.205,-0.52 0.198,-0.524 0.19,-0.524L0.088,-0.524C0.079,-0.524 0.074,-0.519 0.074,-0.51L0.074,0.259C0.074,0.268 0.079,0.273 0.088,0.273ZM0.205,-0.243C0.205,-0.34 0.266,-0.407 0.356,-0.407C0.446,-0.407 0.508,-0.34 0.508,-0.243C0.508,-0.147 0.446,-0.08 0.356,-0.08C0.266,-0.08 0.205,-0.147 0.205,-0.243Z" style="fill-rule:nonzero;"/>
                </g>
                <g transform="matrix(167.526,0,0,167.526,410.889,220)">
                    <path d="M0.325,0.048C0.429,0.048 0.522,0.003 0.572,-0.095C0.576,-0.104 0.573,-0.11 0.564,-0.114L0.468,-0.147C0.46,-0.149 0.454,-0.148 0.449,-0.141C0.423,-0.098 0.383,-0.077 0.326,-0.077C0.251,-0.077 0.204,-0.123 0.191,-0.2L0.575,-0.2C0.584,-0.2 0.589,-0.205 0.59,-0.214C0.596,-0.407 0.497,-0.535 0.325,-0.535C0.148,-0.535 0.041,-0.414 0.041,-0.243C0.041,-0.073 0.148,0.048 0.325,0.048ZM0.44,-0.305L0.193,-0.305C0.21,-0.372 0.258,-0.41 0.324,-0.41C0.384,-0.41 0.427,-0.371 0.44,-0.305Z" style="fill-rule:nonzero;"/>
                </g>
                <g transform="matrix(167.526,0,0,167.526,514.922,220)">
                    <path d="M0.088,0.037L0.2,0.037C0.209,0.037 0.214,0.032 0.214,0.023L0.214,-0.249C0.214,-0.356 0.279,-0.407 0.348,-0.407C0.421,-0.407 0.455,-0.364 0.455,-0.271L0.455,0.023C0.455,0.032 0.46,0.037 0.469,0.037L0.582,0.037C0.59,0.037 0.596,0.032 0.596,0.023L0.596,-0.328C0.596,-0.457 0.521,-0.535 0.391,-0.535C0.319,-0.535 0.249,-0.506 0.208,-0.446L0.205,-0.51C0.205,-0.52 0.198,-0.524 0.19,-0.524L0.088,-0.524C0.079,-0.524 0.074,-0.519 0.074,-0.51L0.074,0.023C0.074,0.032 0.079,0.037 0.088,0.037Z" style="fill-rule:nonzero;"/>
                </g>
                <g transform="matrix(167.526,0,0,167.526,626.327,220)">
                    <path d="M0.09,-0.249L0.414,-0.249C0.422,-0.249 0.428,-0.254 0.428,-0.263L0.428,-0.368C0.428,-0.377 0.422,-0.382 0.414,-0.382L0.09,-0.382C0.081,-0.382 0.076,-0.377 0.076,-0.368L0.076,-0.263C0.076,-0.254 0.081,-0.249 0.09,-0.249Z" style="fill-rule:nonzero;"/>
                </g>
                <g transform="matrix(167.526,0,0,167.526,710.76,220)">
                    <path d="M0.101,0.037L0.365,0.037C0.629,0.037 0.767,-0.111 0.767,-0.36C0.767,-0.611 0.629,-0.758 0.365,-0.758L0.101,-0.758C0.092,-0.758 0.087,-0.753 0.087,-0.744L0.087,0.023C0.087,0.032 0.092,0.037 0.101,0.037ZM0.349,-0.101L0.233,-0.101L0.233,-0.62L0.349,-0.62C0.525,-0.62 0.615,-0.527 0.615,-0.36C0.615,-0.194 0.525,-0.101 0.349,-0.101Z" style="fill-rule:nonzero;"/>
                </g>
                <g transform="matrix(167.526,0,0,167.526,849.303,220)">
                    <path d="M0.325,0.048C0.429,0.048 0.522,0.003 0.572,-0.095C0.576,-0.104 0.573,-0.11 0.564,-0.114L0.468,-0.147C0.46,-0.149 0.454,-0.148 0.449,-0.141C0.423,-0.098 0.383,-0.077 0.326,-0.077C0.251,-0.077 0.204,-0.123 0.191,-0.2L0.575,-0.2C0.584,-0.2 0.589,-0.205 0.59,-0.214C0.596,-0.407 0.497,-0.535 0.325,-0.535C0.148,-0.535 0.041,-0.414 0.041,-0.243C0.041,-0.073 0.148,0.048 0.325,0.048ZM0.44,-0.305L0.193,-0.305C0.21,-0.372 0.258,-0.41 0.324,-0.41C0.384,-0.41 0.427,-0.371 0.44,-0.305Z" style="fill-rule:nonzero;"/>
                </g>
                <g transform="matrix(167.526,0,0,167.526,953.337,220)">
                    <path d="M0.329,0.048C0.453,0.048 0.548,-0.005 0.592,-0.121C0.596,-0.13 0.592,-0.136 0.584,-0.138L0.481,-0.163C0.473,-0.166 0.467,-0.162 0.462,-0.155C0.439,-0.105 0.395,-0.08 0.337,-0.08C0.235,-0.08 0.186,-0.155 0.186,-0.243C0.186,-0.332 0.235,-0.407 0.337,-0.407C0.395,-0.407 0.436,-0.383 0.461,-0.336C0.465,-0.33 0.47,-0.326 0.475,-0.326L0.48,-0.327L0.573,-0.354C0.58,-0.356 0.584,-0.361 0.584,-0.367C0.584,-0.368 0.584,-0.37 0.583,-0.372C0.542,-0.483 0.454,-0.535 0.328,-0.535C0.153,-0.535 0.041,-0.416 0.041,-0.243C0.041,-0.071 0.152,0.048 0.329,0.048Z" style="fill-rule:nonzero;"/>
                </g>
                <g transform="matrix(167.526,0,0,167.526,1058.21,220)">
                    <path d="M0.088,0.037L0.2,0.037C0.209,0.037 0.214,0.032 0.214,0.023L0.214,-0.14L0.299,-0.222L0.451,0.027C0.454,0.034 0.459,0.037 0.467,0.037L0.601,0.037C0.609,0.037 0.612,0.033 0.612,0.028C0.612,0.026 0.612,0.023 0.61,0.02L0.401,-0.323L0.588,-0.507C0.591,-0.51 0.593,-0.513 0.593,-0.515C0.593,-0.52 0.588,-0.524 0.58,-0.524L0.435,-0.524C0.429,-0.524 0.423,-0.522 0.418,-0.516L0.214,-0.305L0.214,-0.761C0.214,-0.77 0.209,-0.775 0.2,-0.775L0.088,-0.775C0.079,-0.775 0.074,-0.77 0.074,-0.761L0.074,0.023C0.074,0.032 0.079,0.037 0.088,0.037Z" style="fill-rule:nonzero;"/>
                </g>
            </g>
            <g transform="matrix(0.624317,0,0,0.624317,-91.4007,208.885)">
                <g transform="matrix(167.526,0,0,167.526,140,220)">
                    <path d="M0.101,0.037L0.219,0.037C0.227,0.037 0.233,0.032 0.233,0.023L0.233,-0.203L0.341,-0.203C0.55,-0.203 0.656,-0.305 0.656,-0.481C0.656,-0.656 0.55,-0.758 0.341,-0.758L0.101,-0.758C0.092,-0.758 0.087,-0.753 0.087,-0.744L0.087,0.023C0.087,0.032 0.092,0.037 0.101,0.037ZM0.336,-0.339L0.233,-0.339L0.233,-0.623L0.336,-0.623C0.444,-0.623 0.505,-0.578 0.505,-0.484C0.505,-0.383 0.444,-0.339 0.336,-0.339Z" style="fill-rule:nonzero;"/>
                </g>
                <g transform="matrix(167.526,0,0,167.526,257.938,220)">
                    <path d="M0.088,0.037L0.2,0.037C0.209,0.037 0.214,0.032 0.214,0.023L0.214,-0.253C0.214,-0.342 0.286,-0.394 0.362,-0.394C0.385,-0.394 0.402,-0.39 0.417,-0.39C0.424,-0.39 0.429,-0.393 0.429,-0.402L0.429,-0.513C0.429,-0.521 0.426,-0.526 0.417,-0.528C0.406,-0.53 0.395,-0.532 0.379,-0.532C0.312,-0.532 0.246,-0.5 0.208,-0.44L0.205,-0.51C0.205,-0.52 0.198,-0.524 0.19,-0.524L0.088,-0.524C0.079,-0.524 0.074,-0.519 0.074,-0.51L0.074,0.023C0.074,0.032 0.079,0.037 0.088,0.037Z" style="fill-rule:nonzero;"/>
                </g>
                <g transform="matrix(167.526,0,0,167.526,331.649,220)">
                    <path d="M0.338,0.048C0.518,0.048 0.635,-0.073 0.635,-0.243C0.635,-0.414 0.518,-0.535 0.338,-0.535C0.158,-0.535 0.041,-0.414 0.041,-0.243C0.041,-0.073 0.158,0.048 0.338,0.048ZM0.186,-0.243C0.186,-0.34 0.248,-0.407 0.338,-0.407C0.428,-0.407 0.49,-0.34 0.49,-0.243C0.49,-0.147 0.428,-0.08 0.338,-0.08C0.248,-0.08 0.186,-0.147 0.186,-0.243Z" style="fill-rule:nonzero;"/>
                </g>
                <g transform="matrix(167.526,0,0,167.526,444.897,220)">
                    <path d="M0.292,0.048C0.356,0.048 0.418,0.021 0.458,-0.053C0.461,-0.057 0.462,-0.061 0.462,-0.064C0.462,-0.069 0.459,-0.073 0.454,-0.076L0.369,-0.114C0.361,-0.118 0.354,-0.115 0.35,-0.107C0.339,-0.088 0.326,-0.08 0.308,-0.08C0.264,-0.08 0.245,-0.11 0.245,-0.171L0.245,-0.398L0.378,-0.398C0.387,-0.398 0.392,-0.404 0.392,-0.412L0.392,-0.51C0.392,-0.519 0.387,-0.524 0.378,-0.524L0.245,-0.524L0.245,-0.675C0.245,-0.683 0.239,-0.689 0.231,-0.689L0.118,-0.689C0.109,-0.689 0.104,-0.683 0.104,-0.675L0.104,-0.524L0.022,-0.524C0.013,-0.524 0.008,-0.519 0.008,-0.51L0.008,-0.412C0.008,-0.404 0.013,-0.398 0.022,-0.398L0.104,-0.398L0.104,-0.18C0.104,-0.028 0.171,0.048 0.292,0.048Z" style="fill-rule:nonzero;"/>
                </g>
                <g transform="matrix(167.526,0,0,167.526,520.786,220)">
                    <path d="M0.338,0.048C0.518,0.048 0.635,-0.073 0.635,-0.243C0.635,-0.414 0.518,-0.535 0.338,-0.535C0.158,-0.535 0.041,-0.414 0.041,-0.243C0.041,-0.073 0.158,0.048 0.338,0.048ZM0.186,-0.243C0.186,-0.34 0.248,-0.407 0.338,-0.407C0.428,-0.407 0.49,-0.34 0.49,-0.243C0.49,-0.147 0.428,-0.08 0.338,-0.08C0.248,-0.08 0.186,-0.147 0.186,-0.243Z" style="fill-rule:nonzero;"/>
                </g>
                <g transform="matrix(167.526,0,0,167.526,634.033,220)">
                    <path d="M0.305,0.037L0.423,0.037C0.432,0.037 0.438,0.032 0.438,0.023L0.438,-0.62L0.682,-0.62C0.691,-0.62 0.696,-0.626 0.696,-0.634L0.696,-0.744C0.696,-0.753 0.691,-0.758 0.682,-0.758L0.045,-0.758C0.037,-0.758 0.032,-0.753 0.032,-0.744L0.032,-0.634C0.032,-0.626 0.037,-0.62 0.045,-0.62L0.291,-0.62L0.291,0.023C0.291,0.032 0.297,0.037 0.305,0.037Z" style="fill-rule:nonzero;"/>
                </g>
                <g transform="matrix(167.526,0,0,167.526,747.113,220)">
                    <path d="M0.157,0.273L0.275,0.273C0.283,0.273 0.288,0.27 0.291,0.262L0.605,-0.508C0.61,-0.517 0.604,-0.524 0.595,-0.524L0.471,-0.524C0.464,-0.524 0.458,-0.521 0.455,-0.513L0.322,-0.169L0.185,-0.513C0.182,-0.521 0.177,-0.524 0.169,-0.524L0.035,-0.524C0.027,-0.524 0.022,-0.52 0.022,-0.515C0.022,-0.513 0.023,-0.51 0.024,-0.508L0.249,0.001L0.146,0.257C0.143,0.267 0.147,0.273 0.157,0.273Z" style="fill-rule:nonzero;"/>
                </g>
                <g transform="matrix(167.526,0,0,167.526,852.486,220)">
                    <path d="M0.088,0.273L0.2,0.273C0.209,0.273 0.214,0.268 0.214,0.259L0.214,-0.031C0.256,0.019 0.317,0.048 0.391,0.048C0.551,0.048 0.653,-0.071 0.653,-0.243C0.653,-0.416 0.551,-0.535 0.391,-0.535C0.313,-0.535 0.248,-0.502 0.208,-0.447L0.205,-0.51C0.205,-0.52 0.198,-0.524 0.19,-0.524L0.088,-0.524C0.079,-0.524 0.074,-0.519 0.074,-0.51L0.074,0.259C0.074,0.268 0.079,0.273 0.088,0.273ZM0.205,-0.243C0.205,-0.34 0.266,-0.407 0.356,-0.407C0.446,-0.407 0.508,-0.34 0.508,-0.243C0.508,-0.147 0.446,-0.08 0.356,-0.08C0.266,-0.08 0.205,-0.147 0.205,-0.243Z" style="fill-rule:nonzero;"/>
                </g>
                <g transform="matrix(167.526,0,0,167.526,968.749,220)">
                    <path d="M0.325,0.048C0.429,0.048 0.522,0.003 0.572,-0.095C0.576,-0.104 0.573,-0.11 0.564,-0.114L0.468,-0.147C0.46,-0.149 0.454,-0.148 0.449,-0.141C0.423,-0.098 0.383,-0.077 0.326,-0.077C0.251,-0.077 0.204,-0.123 0.191,-0.2L0.575,-0.2C0.584,-0.2 0.589,-0.205 0.59,-0.214C0.596,-0.407 0.497,-0.535 0.325,-0.535C0.148,-0.535 0.041,-0.414 0.041,-0.243C0.041,-0.073 0.148,0.048 0.325,0.048ZM0.44,-0.305L0.193,-0.305C0.21,-0.372 0.258,-0.41 0.324,-0.41C0.384,-0.41 0.427,-0.371 0.44,-0.305Z" style="fill-rule:nonzero;"/>
                </g>
            </g>
        </g>
    </g>
</svg>
