<?xml version="1.0" encoding="UTF-8" standalone="no"?>
<!DOCTYPE svg PUBLIC "-//W3C//DTD SVG 1.1//EN" "http://www.w3.org/Graphics/SVG/1.1/DTD/svg11.dtd">
<svg width="100%" height="100%" viewBox="0 0 1000 1000" version="1.1" xmlns="http://www.w3.org/2000/svg" xmlns:xlink="http://www.w3.org/1999/xlink" xml:space="preserve" xmlns:serif="http://www.serif.com/" style="fill-rule:evenodd;clip-rule:evenodd;stroke-linejoin:round;stroke-miterlimit:2;">
    <g transform="matrix(1,0,0,1,0,-1159)">
        <g id="tl_column" transform="matrix(1,0,0,1,0,1159.53)">
            <rect x="0" y="0" width="1000" height="1000" style="fill:none;"/>
            <clipPath id="_clip1">
                <rect x="0" y="0" width="1000" height="1000"/>
            </clipPath>
            <g clip-path="url(#_clip1)">
                <path d="M741.552,713.547L895.466,713.547C912.17,713.547 925.731,724.869 925.731,738.815C925.731,738.851 925.731,738.888 925.731,738.925L925.731,1071.82L925.731,1075.88C925.731,1087.59 916.228,1097.09 904.523,1097.09C903.869,1097.09 903.222,1097.06 902.582,1097C901.884,1097.06 901.177,1097.09 900.464,1097.09L178.05,1097.09C164.105,1097.09 152.783,1085.77 152.783,1071.82L152.783,942.287L121.169,942.287L121.169,1000L70.633,1000L70.633,0L121.169,0L121.169,83.782L152.783,83.782L152.783,-0.746C152.783,-14.692 164.105,-26.014 178.05,-26.014C191.996,-26.014 203.318,-14.692 203.318,-0.746L203.318,240.02L883.314,240.02L883.314,-4.805C883.314,-16.51 892.818,-26.014 904.523,-26.014C916.228,-26.014 925.731,-16.51 925.731,-4.805L925.731,269.347C925.731,281.053 916.228,290.556 904.523,290.556C903.869,290.556 903.222,290.526 902.582,290.468C901.884,290.526 901.177,290.556 900.464,290.556L178.05,290.556C164.105,290.556 152.783,279.234 152.783,265.288L152.783,139.348L121.169,139.348L121.169,472.217L152.783,472.217L152.783,344.217C152.783,330.271 164.105,318.949 178.05,318.949L900.464,318.949C901.177,318.949 901.884,318.979 902.582,319.037C903.222,318.979 903.869,318.949 904.523,318.949C916.228,318.949 925.731,328.452 925.731,340.158L925.731,677.114C925.731,688.819 916.228,698.323 904.523,698.323C903.183,698.323 901.872,698.198 900.6,697.96C898.931,698.198 897.216,698.323 895.466,698.323L741.552,698.323L741.552,651.893C741.552,650.512 741.5,649.142 741.399,647.787L883.314,647.787L883.314,369.485L203.318,369.485L203.318,647.787L632.673,647.787C632.572,649.142 632.521,650.512 632.521,651.893L632.521,698.323L179.49,698.323C179.243,698.323 178.996,698.319 178.75,698.313C178.518,698.319 178.285,698.323 178.05,698.323C164.105,698.323 152.783,687 152.783,673.055L152.783,527.783L121.169,527.783L121.169,886.721L152.783,886.721L152.783,742.984C152.783,742.272 152.812,741.567 152.87,740.871C152.812,740.192 152.783,739.507 152.783,738.815C152.783,724.869 164.75,713.547 179.49,713.547L632.521,713.547L632.521,737.448L546.965,737.448C527.062,737.448 509.636,748.137 500.119,764.083L203.318,764.083L203.318,1046.55L883.314,1046.55L883.314,764.083L873.953,764.083C864.436,748.137 847.01,737.448 827.107,737.448L741.552,737.448L741.552,713.547Z" style="fill:rgb(0,62,155);"/>
                <g transform="matrix(0.650503,0,-6.16298e-33,0.650503,288.557,357.21)">
                    <path d="M554.338,610.102L554.338,453.009C554.338,420.869 580.431,394.775 612.572,394.775C644.712,394.775 670.805,420.869 670.805,453.009L670.805,610.102L827.899,610.102C860.039,610.102 886.132,636.196 886.132,668.336C886.132,700.476 860.039,726.57 827.899,726.57L670.805,726.57L670.805,883.663C670.805,915.803 644.712,941.897 612.572,941.897C580.431,941.897 554.338,915.803 554.338,883.663L554.338,726.57L397.244,726.57C365.104,726.57 339.011,700.476 339.011,668.336C339.011,636.196 365.104,610.102 397.244,610.102L554.338,610.102Z" style="fill:rgb(0,62,155);"/>
                </g>
            </g>
        </g>
    </g>
</svg>
