<?xml version="1.0" encoding="UTF-8" standalone="no"?>
<!DOCTYPE svg PUBLIC "-//W3C//DTD SVG 1.1//EN" "http://www.w3.org/Graphics/SVG/1.1/DTD/svg11.dtd">
<svg width="100%" height="100%" viewBox="0 0 1000 1000" version="1.1" xmlns="http://www.w3.org/2000/svg" xmlns:xlink="http://www.w3.org/1999/xlink" xml:space="preserve" xmlns:serif="http://www.serif.com/" style="fill-rule:evenodd;clip-rule:evenodd;stroke-linejoin:round;stroke-miterlimit:2;">
    <rect id="top_hide" x="0" y="0" width="1000" height="1000" style="fill:none;"/>
    <clipPath id="_clip1">
        <rect id="top_hide1" serif:id="top_hide" x="0" y="0" width="1000" height="1000"/>
    </clipPath>
    <g clip-path="url(#_clip1)">
        <g transform="matrix(6.2378,4.94664e-15,-2.14819e-14,-42.0504,1.48697e-11,29810.8)">
            <rect x="0" y="685.149" width="160.313" height="7.809" style="fill:rgb(0,62,155);"/>
        </g>
        <g transform="matrix(1.77071,0,0,1.77071,-165.292,-89.3223)">
            <g transform="matrix(-0.481714,0.481714,1.70325,1.70325,204.742,-366.557)">
                <path d="M616.738,176.268C616.738,173.406 608.521,171.082 598.401,171.082L268.338,171.082C258.217,171.082 250,173.406 250,176.268L250,186.64C250,189.503 258.217,191.827 268.338,191.827L598.401,191.827C608.521,191.827 616.738,189.503 616.738,186.64L616.738,176.268Z" style="fill:rgb(0,62,155);"/>
            </g>
            <g transform="matrix(0.481714,0.481714,-1.70325,1.70325,546.697,-366.557)">
                <path d="M616.738,176.268C616.738,173.406 608.521,171.082 598.401,171.082L268.338,171.082C258.217,171.082 250,173.406 250,176.268L250,186.64C250,189.503 258.217,191.827 268.338,191.827L598.401,191.827C608.521,191.827 616.738,189.503 616.738,186.64L616.738,176.268Z" style="fill:rgb(0,62,155);"/>
            </g>
        </g>
        <g transform="matrix(3.57408e-17,1.78998,-4.26523,-1.26373e-16,1273.94,-408.055)">
            <path d="M616.738,176.268C616.738,173.406 611.201,171.082 604.38,171.082L262.358,171.082C255.537,171.082 250,173.406 250,176.268L250,186.64C250,189.503 255.537,191.827 262.358,191.827L604.38,191.827C611.201,191.827 616.738,189.503 616.738,186.64L616.738,176.268Z" style="fill:rgb(0,62,155);"/>
        </g>
    </g>
</svg>
